<svg width="60" height="61" viewBox="0 0 60 61" fill="none" xmlns="http://www.w3.org/2000/svg">
<path d="M34.2994 24.9927L34.6406 25.1129L34.8616 24.8264C35.4897 24.0117 36.1504 23.6652 36.7913 23.5062C37.3218 23.3745 37.8317 23.3682 38.3622 23.3616C38.5089 23.3598 38.6571 23.358 38.8077 23.3535C39.4522 23.3342 40.2015 23.2639 40.7503 22.6952C41.2177 22.2107 41.4553 21.4544 41.5106 20.3561L44.298 20.4882L44.6157 21.7367C45.6677 25.8706 45.0345 30.2531 42.8552 33.9201C40.676 37.5871 37.1293 40.2382 32.9954 41.2903C28.8615 42.3423 24.479 41.709 20.812 39.5298C17.4307 37.5204 14.9132 34.3483 13.7166 30.6252L14.1124 30.7792C14.2915 31.3 14.581 31.6706 14.9772 31.913C15.4093 32.1774 15.9123 32.2525 16.3704 32.29C16.5557 32.3052 16.7379 32.3154 16.9174 32.3255C17.6863 32.3687 18.4055 32.4091 19.101 32.8224C19.7733 33.2219 20.4969 33.1525 21.1601 32.9012C21.8131 32.6539 22.476 32.2064 23.1029 31.7389C23.382 31.5308 23.6472 31.3243 23.9072 31.1219C24.2614 30.8461 24.6059 30.5779 24.9625 30.3235C25.4921 29.9457 25.9658 29.6619 26.3838 29.5179C26.9726 29.8272 27.4956 29.9952 27.9674 30.0168C28.5099 30.0416 28.9548 29.8712 29.3113 29.5648C29.6513 29.2726 29.8898 28.8753 30.0775 28.4749C30.246 28.1157 30.3912 27.714 30.5298 27.3303C30.546 27.2857 30.562 27.2413 30.578 27.1972C30.9015 26.3054 31.2073 25.5515 31.7265 25.1107C32.1838 24.7225 32.9104 24.5032 34.2994 24.9927Z" fill="url(#paint0_linear_894_6999)" stroke="white"/>
<path d="M30.9635 23.1965C30.9635 23.7306 30.8915 24.1927 30.7474 24.5827C30.6034 24.9668 30.4084 25.2968 30.1623 25.5729C29.9163 25.8489 29.6253 26.0829 29.2892 26.275C28.9592 26.461 28.6051 26.626 28.227 26.7701C27.849 26.9141 27.4559 27.0431 27.0479 27.1571C26.6458 27.2711 26.2467 27.3912 25.8507 27.5172C25.4546 27.6432 25.0736 27.7872 24.7075 27.9492C24.3414 28.1113 24.0114 28.3123 23.7173 28.5523C23.4233 28.7864 23.1713 29.0714 22.9612 29.4075C22.7512 29.7375 22.6072 30.1366 22.5292 30.6047H30.9635V32.2609H18.6855C18.8176 31.4328 19.0066 30.7187 19.2526 30.1186C19.4987 29.5125 19.7837 28.9934 20.1078 28.5613C20.4318 28.1293 20.7829 27.7692 21.1609 27.4812C21.545 27.1871 21.9381 26.9411 22.3401 26.7431C22.7422 26.539 23.1472 26.371 23.5553 26.239C23.9634 26.101 24.3564 25.9689 24.7345 25.8429C25.1126 25.7169 25.4636 25.5849 25.7877 25.4468C26.1177 25.3028 26.4028 25.1258 26.6428 24.9158C26.8888 24.7057 27.0809 24.4507 27.2189 24.1506C27.3569 23.8446 27.4259 23.4665 27.4259 23.0165C27.4259 22.6084 27.3569 22.2513 27.2189 21.9453C27.0809 21.6393 26.8918 21.3842 26.6518 21.1802C26.4118 20.9761 26.1267 20.8231 25.7967 20.7211C25.4726 20.6191 25.1246 20.5681 24.7525 20.5681C24.3624 20.5681 23.9994 20.6401 23.6633 20.7841C23.3333 20.9281 23.0332 21.1322 22.7632 21.3962C22.4991 21.6543 22.2681 21.9663 22.0701 22.3324C21.878 22.6984 21.731 23.1065 21.629 23.5566L18.8656 22.0263C19.1116 21.5222 19.4597 21.0842 19.9097 20.7121C20.3658 20.34 20.8699 20.031 21.422 19.785C21.9741 19.5329 22.5472 19.3469 23.1412 19.2269C23.7413 19.1009 24.3084 19.0378 24.8425 19.0378C25.3586 19.0378 25.8687 19.0588 26.3728 19.1009C26.8768 19.1429 27.3539 19.2209 27.804 19.3349C28.2601 19.4489 28.6801 19.6049 29.0642 19.803C29.4482 20.001 29.7813 20.256 30.0633 20.5681C30.3454 20.8741 30.5644 21.2432 30.7204 21.6753C30.8825 22.1073 30.9635 22.6144 30.9635 23.1965Z" fill="#777777"/>
<path d="M13.0159 27.5902L10.644 25.896L10.644 28.8108C10.644 33.6069 12.5493 38.2065 15.9406 41.5979C19.332 44.9892 23.9317 46.8945 28.7278 46.8945C33.5239 46.8945 38.1235 44.9893 41.5149 41.5979C44.9062 38.2065 46.8115 33.6069 46.8115 28.8108V27.1524V26.0423L45.7498 25.7179L42.238 24.6448L40.7352 24.1856L40.3463 25.7082C40.0882 26.7187 39.8479 27.0122 39.7879 27.0738C39.7359 27.0768 39.581 27.0737 39.2192 26.9931C39.1348 26.9743 39.0356 26.9499 38.9241 26.9226C38.4026 26.7947 37.6117 26.6007 36.8043 26.5959C35.9824 26.591 35.1168 26.7659 34.2356 27.2471C32.9622 26.6287 31.7395 26.5528 30.6099 27.105C29.4646 27.6649 28.7119 28.7726 28.2374 29.471C28.227 29.4862 28.2169 29.5012 28.2068 29.5159C28.1815 29.5532 28.1568 29.5896 28.1326 29.6252C27.8916 29.9801 27.7052 30.2546 27.5152 30.4858C27.355 30.6808 27.2503 30.7704 27.1962 30.8087C27.0962 30.7725 26.8515 30.648 26.4461 30.2615L26.0115 29.8471L25.411 29.8471C24.5403 29.8471 23.652 30.1381 22.9236 30.421C22.5042 30.5839 22.0037 30.8019 21.5424 31.0027C21.2457 31.1319 20.9653 31.254 20.7332 31.3498C20.0283 31.6408 19.497 31.8136 19.1016 31.8585C18.9175 31.8793 18.8212 31.8646 18.784 31.8549C18.766 31.8503 18.7657 31.849 18.7655 31.848C18.7654 31.8478 18.7654 31.8475 18.7651 31.8473C17.8041 30.8863 16.537 30.5026 15.8125 30.2832C15.6853 30.2447 15.5748 30.2113 15.4857 30.1806C15.3065 30.1191 15.1882 30.0697 15.1052 30.0262C15.0655 30.0054 15.0407 29.9894 15.0266 29.9793C15.0189 29.949 15.0098 29.8896 15.0098 29.7863V29.0144L14.3816 28.5657L13.0159 27.5902ZM39.8097 27.0713C39.8097 27.0713 39.8088 27.0715 39.8067 27.0719C39.8086 27.0714 39.8096 27.0712 39.8097 27.0713ZM15.0366 30.0058C15.0361 30.0066 15.0333 30.0021 15.0296 29.9903C15.0353 29.9992 15.0371 30.0051 15.0366 30.0058Z" fill="url(#paint1_linear_894_6999)" stroke="white" stroke-width="3"/>
<path d="M38.7147 35.1542H39.2147V34.6542V32.7324V32.2324H38.7147H38.1646V22.9763V22.4763H37.6646H33.4954H32.9954V22.9763V24.5766H32.1722H29.2632H29.0044L28.855 24.788C28.3551 25.495 27.8774 26.2472 27.4219 27.0444C26.9672 27.8401 26.5445 28.6535 26.1538 29.4847L26.1538 29.4847L26.1523 29.4878C25.7682 30.3202 25.423 31.1635 25.117 32.0176C24.81 32.8742 24.5595 33.7149 24.3658 34.5399L24.2216 35.1542H24.8525H32.9954V38.0987V38.5987H33.4954H37.6646H38.1646V38.0987V35.1542H38.7147ZM32.9954 24.678V32.2324H29.6575C29.7948 31.7067 29.9644 31.1506 30.1665 30.5639L30.1667 30.5633C30.4062 29.8654 30.7228 29.063 31.1178 28.155C31.5141 27.2601 32.0079 26.32 32.6007 25.3343L32.9954 24.678Z" fill="#777777" stroke="white"/>
<path d="M26.0003 48.9043L25.5511 48.8426L25.4458 49.2836L24.0114 55.294L20.9229 54.5569L22.3573 48.5465L22.4624 48.1062L22.0347 47.958C18.3904 46.6953 15.1797 44.4236 12.776 41.4074C10.3723 38.3912 8.87458 34.7544 8.45705 30.9202C8.03952 27.0861 8.71938 23.2122 10.4175 19.7493C12.0422 16.4361 14.5352 13.6295 17.6266 11.626L19.2904 14.3329C16.5898 16.1029 14.4389 18.5995 13.0882 21.5398C11.6678 24.6316 11.1962 28.0753 11.733 31.4352C12.2698 34.7951 13.7908 37.9204 16.1038 40.4158C18.4168 42.9113 21.4179 44.6648 24.7274 45.4547C28.037 46.2445 31.5065 46.0352 34.6971 44.8533C37.8878 43.6713 40.6562 41.5698 42.6525 38.8144C44.6488 36.059 45.7831 32.7736 45.9121 29.3735C46.0348 26.1401 45.2431 22.9413 43.6329 20.1425L46.339 18.4791C48.7831 22.6944 49.6409 27.6511 48.7465 32.4521C47.8215 37.4173 45.0881 41.863 41.0749 44.9295L40.716 45.2037L40.9525 45.5886L42.932 48.8091L40.2264 50.4722L38.2469 47.2516L38.01 46.8662L37.6028 47.0635C34.0017 48.8087 29.9647 49.4492 26.0003 48.9043Z" stroke="black"/>
<defs>
<linearGradient id="paint0_linear_894_6999" x1="28.3552" y1="23.0563" x2="33.1187" y2="41.7748" gradientUnits="userSpaceOnUse">
<stop stop-color="#35A7FF" stop-opacity="0.87"/>
<stop offset="0.677665" stop-color="#35D5E5" stop-opacity="0.75941"/>
<stop offset="1" stop-color="#35FFCF" stop-opacity="0.66"/>
</linearGradient>
<linearGradient id="paint1_linear_894_6999" x1="28.7278" y1="26.0793" x2="28.7278" y2="45.3945" gradientUnits="userSpaceOnUse">
<stop stop-color="#35A7FF" stop-opacity="0.87"/>
<stop offset="0.677665" stop-color="#35D5E5" stop-opacity="0.75941"/>
<stop offset="1" stop-color="#35FFCF" stop-opacity="0.66"/>
</linearGradient>
</defs>
</svg>
