<svg width="26" height="25" viewBox="0 0 26 25" fill="none" xmlns="http://www.w3.org/2000/svg">
<g clip-path="url(#clip0_106_4274)">
<path d="M11.0539 24.6594C5.23933 23.6189 0.83252 18.6001 0.83252 12.5407C0.83252 5.80808 6.34104 0.299561 13.0737 0.299561C19.8063 0.299561 25.3148 5.80808 25.3148 12.5407C25.3148 18.6001 20.908 23.6189 15.0935 24.6594L14.4202 24.1086H11.7271L11.0539 24.6594Z" fill="url(#paint0_linear_106_4274)"/>
<path d="M17.8476 15.9681L18.3985 12.5406H15.1546V10.1536C15.1546 9.17427 15.5218 8.4398 16.9907 8.4398H18.5821V5.31831C17.7252 5.19589 16.7459 5.07349 15.889 5.07349C13.0736 5.07349 11.115 6.78725 11.115 9.84753V12.5406H8.05469V15.9681H11.115V24.5981C11.7882 24.7205 12.4615 24.7817 13.1348 24.7817C13.808 24.7817 14.4813 24.7205 15.1546 24.5981V15.9681H17.8476Z" fill="white"/>
</g>
<defs>
<linearGradient id="paint0_linear_106_4274" x1="13.0744" y1="23.93" x2="13.0744" y2="0.294823" gradientUnits="userSpaceOnUse">
<stop stop-color="#0062E0"/>
<stop offset="1" stop-color="#19AFFF"/>
</linearGradient>
<clipPath id="clip0_106_4274">
<rect width="25" height="25" fill="white" transform="translate(0.5)"/>
</clipPath>
</defs>
</svg>
