<svg width="35" height="35" viewBox="0 0 35 35" fill="none" xmlns="http://www.w3.org/2000/svg">
<path d="M22.9688 17.5C22.9688 18.9504 22.3926 20.3414 21.367 21.367C20.3414 22.3926 18.9504 22.9688 17.5 22.9688C16.0496 22.9688 14.6586 22.3926 13.633 21.367C12.6074 20.3414 12.0312 18.9504 12.0312 17.5C12.0312 17.1883 12.0641 16.8839 12.1206 16.5885H10.2083V23.8747C10.2083 24.3815 10.6185 24.7917 11.1253 24.7917H23.8766C24.1194 24.7912 24.3522 24.6944 24.5238 24.5225C24.6953 24.3506 24.7917 24.1176 24.7917 23.8747V16.5885H22.8794C22.9359 16.8839 22.9688 17.1883 22.9688 17.5ZM17.5 21.1458C17.9789 21.1457 18.4531 21.0513 18.8955 20.8679C19.3379 20.6845 19.7398 20.4158 20.0784 20.0771C20.4169 19.7384 20.6854 19.3363 20.8686 18.8938C21.0517 18.4513 21.146 17.9771 21.1458 17.4982C21.1457 17.0193 21.0513 16.5451 20.8679 16.1027C20.6845 15.6603 20.4158 15.2584 20.0771 14.9198C19.7384 14.5813 19.3363 14.3127 18.8938 14.1296C18.4513 13.9464 17.9771 13.8522 17.4982 13.8523C16.531 13.8526 15.6035 14.237 14.9198 14.9211C14.2361 15.6052 13.8521 16.5328 13.8523 17.5C13.8526 18.4672 14.237 19.3946 14.9211 20.0784C15.6052 20.7621 16.5328 21.1461 17.5 21.1458ZM21.875 13.6719H24.0607C24.2059 13.6719 24.3452 13.6143 24.448 13.5118C24.5509 13.4093 24.6089 13.2702 24.6094 13.125V10.9393C24.6094 10.7938 24.5516 10.6542 24.4487 10.5513C24.3458 10.4484 24.2062 10.3906 24.0607 10.3906H21.875C21.7295 10.3906 21.5899 10.4484 21.487 10.5513C21.3841 10.6542 21.3263 10.7938 21.3263 10.9393V13.125C21.3281 13.4258 21.5742 13.6719 21.875 13.6719ZM17.5 0C12.8587 0 8.40752 1.84374 5.12563 5.12563C1.84374 8.40752 0 12.8587 0 17.5C0 22.1413 1.84374 26.5925 5.12563 29.8744C8.40752 33.1563 12.8587 35 17.5 35C19.7981 35 22.0738 34.5473 24.197 33.6679C26.3202 32.7884 28.2493 31.4994 29.8744 29.8744C31.4994 28.2493 32.7884 26.3202 33.6679 24.197C34.5473 22.0738 35 19.7981 35 17.5C35 15.2019 34.5473 12.9262 33.6679 10.803C32.7884 8.67984 31.4994 6.75066 29.8744 5.12563C28.2493 3.50061 26.3202 2.21157 24.197 1.33211C22.0738 0.452651 19.7981 0 17.5 0ZM26.6146 24.5893C26.6146 25.7031 25.7031 26.6146 24.5893 26.6146H10.4107C9.29688 26.6146 8.38542 25.7031 8.38542 24.5893V10.4107C8.38542 9.29688 9.29688 8.38542 10.4107 8.38542H24.5893C25.7031 8.38542 26.6146 9.29688 26.6146 10.4107V24.5893Z" fill="white"/>
</svg>
