<svg width="170" height="61" viewBox="0 0 170 61" fill="none" xmlns="http://www.w3.org/2000/svg">
<path d="M57.1269 47.9307V43.4617H58.5693C58.8865 43.4617 59.1512 43.5228 59.3636 43.645C59.5775 43.7657 59.7382 43.9301 59.8459 44.1381C59.955 44.3462 60.0095 44.5804 60.0095 44.8408C60.0095 45.1012 59.9557 45.3362 59.8481 45.5456C59.7404 45.7537 59.5804 45.9188 59.368 46.041C59.1556 46.1617 58.8916 46.2221 58.5759 46.2221H57.4411V45.8555H58.565C58.7992 45.8555 58.9934 45.8119 59.1476 45.7246C59.3018 45.6358 59.4167 45.5151 59.4924 45.3623C59.5695 45.2096 59.608 45.0357 59.608 44.8408C59.608 44.6459 59.5695 44.472 59.4924 44.3193C59.4167 44.1665 59.3011 44.0465 59.1454 43.9592C58.9912 43.8719 58.7955 43.8283 58.5584 43.8283H57.535V47.9307H57.1269Z" fill="#434343"/>
<path d="M61.2862 47.9307V44.5789H61.6637V45.0939H61.6921C61.759 44.9252 61.8754 44.7892 62.0412 44.6859C62.2085 44.5811 62.3976 44.5288 62.6086 44.5288C62.6406 44.5288 62.6762 44.5295 62.7155 44.5309C62.7548 44.5324 62.7875 44.5338 62.8137 44.5353V44.9303C62.7963 44.9274 62.7657 44.923 62.7221 44.9172C62.6784 44.9114 62.6311 44.9084 62.5802 44.9084C62.4056 44.9084 62.25 44.9455 62.1132 45.0197C61.9779 45.0925 61.871 45.1936 61.7925 45.3231C61.7139 45.4525 61.6746 45.6002 61.6746 45.766V47.9307H61.2862Z" fill="#434343"/>
<path d="M65.0767 48.0006C64.7872 48.0006 64.5312 47.9271 64.3086 47.7802C64.0875 47.6332 63.9143 47.4303 63.7892 47.1714C63.6641 46.9109 63.6016 46.6105 63.6016 46.2701C63.6016 45.9268 63.6641 45.6249 63.7892 45.3645C63.9143 45.1027 64.0875 44.899 64.3086 44.7535C64.5312 44.6066 64.7872 44.5331 65.0767 44.5331C65.3662 44.5331 65.6215 44.6066 65.8426 44.7535C66.0638 44.9004 66.2369 45.1041 66.362 45.3645C66.4886 45.6249 66.5518 45.9268 66.5518 46.2701C66.5518 46.6105 66.4893 46.9109 66.3642 47.1714C66.2391 47.4303 66.0652 47.6332 65.8426 47.7802C65.6215 47.9271 65.3662 48.0006 65.0767 48.0006ZM65.0767 47.6449C65.3095 47.6449 65.5066 47.5823 65.6681 47.4572C65.8295 47.3321 65.9517 47.1655 66.0347 46.9575C66.119 46.7495 66.1612 46.5203 66.1612 46.2701C66.1612 46.0199 66.119 45.79 66.0347 45.5806C65.9517 45.3711 65.8295 45.203 65.6681 45.0765C65.5066 44.9499 65.3095 44.8866 65.0767 44.8866C64.8454 44.8866 64.6483 44.9499 64.4853 45.0765C64.3239 45.203 64.2009 45.3711 64.1165 45.5806C64.0336 45.79 63.9922 46.0199 63.9922 46.2701C63.9922 46.5203 64.0336 46.7495 64.1165 46.9575C64.2009 47.1655 64.3239 47.3321 64.4853 47.4572C64.6468 47.5823 64.8439 47.6449 65.0767 47.6449Z" fill="#434343"/>
<path d="M69.1831 44.5789V44.9172H67.5355V44.5789H69.1831ZM68.0505 47.9307V44.088C68.0505 43.9076 68.092 43.7555 68.1749 43.6319C68.2593 43.5082 68.3691 43.4144 68.5044 43.3504C68.6397 43.2864 68.783 43.2544 68.9343 43.2544C69.0361 43.2544 69.1205 43.2631 69.1874 43.2806C69.2558 43.2966 69.3096 43.3126 69.3489 43.3286L69.2354 43.669C69.2063 43.6603 69.1707 43.6501 69.1285 43.6384C69.0863 43.6268 69.0332 43.621 68.9692 43.621C68.8005 43.621 68.6703 43.6683 68.5786 43.7628C68.487 43.8574 68.4411 43.9927 68.4411 44.1687L68.439 47.9307H68.0505Z" fill="#434343"/>
<path d="M71.5748 48.0006C71.262 48.0006 70.9914 47.9278 70.763 47.7824C70.5346 47.6354 70.3579 47.4325 70.2328 47.1735C70.1091 46.9131 70.0473 46.6134 70.0473 46.2745C70.0473 45.937 70.1091 45.6373 70.2328 45.3754C70.3579 45.1121 70.5303 44.9063 70.7499 44.7579C70.9711 44.608 71.2264 44.5331 71.5159 44.5331C71.6977 44.5331 71.873 44.5666 72.0418 44.6335C72.2105 44.699 72.3618 44.8001 72.4957 44.9368C72.631 45.0721 72.7379 45.243 72.8165 45.4496C72.895 45.6547 72.9343 45.8977 72.9343 46.1785V46.3705H70.3157V46.0279H72.5371C72.5371 45.8126 72.4935 45.6191 72.4062 45.4474C72.3204 45.2743 72.2004 45.1376 72.0462 45.0372C71.8934 44.9368 71.7166 44.8866 71.5159 44.8866C71.3035 44.8866 71.1166 44.9434 70.9551 45.0568C70.7936 45.1703 70.667 45.3201 70.5754 45.5064C70.4852 45.6926 70.4394 45.8962 70.4379 46.1174V46.3225C70.4379 46.5887 70.4837 46.8215 70.5754 47.0208C70.6685 47.2186 70.8001 47.3721 70.9703 47.4812C71.1406 47.5903 71.342 47.6449 71.5748 47.6449C71.7334 47.6449 71.8723 47.6201 71.9916 47.5707C72.1123 47.5212 72.2135 47.455 72.2949 47.3721C72.3778 47.2877 72.4404 47.1954 72.4826 47.095L72.8514 47.215C72.8005 47.3561 72.7168 47.4863 72.6004 47.6056C72.4855 47.7249 72.3415 47.8209 72.1684 47.8936C71.9967 47.9649 71.7988 48.0006 71.5748 48.0006Z" fill="#434343"/>
<path d="M76.4417 45.3143L76.086 45.4147C76.0511 45.3143 76.0016 45.2234 75.9376 45.1419C75.8736 45.0605 75.7899 44.9957 75.6866 44.9477C75.5848 44.8997 75.4582 44.8757 75.3069 44.8757C75.08 44.8757 74.8938 44.9295 74.7483 45.0372C74.6028 45.1448 74.5301 45.2838 74.5301 45.454C74.5301 45.598 74.5795 45.7151 74.6785 45.8053C74.7789 45.8941 74.9331 45.9646 75.1411 46.017L75.6474 46.1414C75.9281 46.2097 76.1383 46.3181 76.278 46.4665C76.4191 46.6149 76.4897 46.8011 76.4897 47.0251C76.4897 47.2143 76.4373 47.3823 76.3325 47.5292C76.2278 47.6762 76.0816 47.7918 75.8939 47.8762C75.7077 47.9591 75.4917 48.0006 75.2458 48.0006C74.9185 48.0006 74.6486 47.9271 74.4363 47.7802C74.2239 47.6318 74.0878 47.4179 74.0282 47.1386L74.4013 47.047C74.4493 47.2463 74.5432 47.3968 74.6828 47.4987C74.8239 47.6005 75.0094 47.6514 75.2393 47.6514C75.4968 47.6514 75.7026 47.594 75.8568 47.479C76.011 47.3627 76.0881 47.2172 76.0881 47.0426C76.0881 46.9073 76.043 46.7938 75.9529 46.7022C75.8627 46.6091 75.7259 46.5407 75.5426 46.4971L74.9949 46.3661C74.7039 46.2963 74.4886 46.1857 74.349 46.0344C74.2093 45.8831 74.1395 45.6955 74.1395 45.4714C74.1395 45.2867 74.1897 45.1245 74.29 44.9848C74.3904 44.8437 74.5286 44.7331 74.7047 44.6531C74.8807 44.5731 75.0814 44.5331 75.3069 44.5331C75.6139 44.5331 75.859 44.6029 76.0423 44.7426C76.2271 44.8808 76.3602 45.0714 76.4417 45.3143Z" fill="#434343"/>
<path d="M79.9916 45.3143L79.6359 45.4147C79.601 45.3143 79.5515 45.2234 79.4875 45.1419C79.4235 45.0605 79.3398 44.9957 79.2365 44.9477C79.1347 44.8997 79.0081 44.8757 78.8569 44.8757C78.6299 44.8757 78.4437 44.9295 78.2982 45.0372C78.1527 45.1448 78.08 45.2838 78.08 45.454C78.08 45.598 78.1295 45.7151 78.2284 45.8053C78.3288 45.8941 78.483 45.9646 78.691 46.017L79.1973 46.1414C79.478 46.2097 79.6883 46.3181 79.8279 46.4665C79.969 46.6149 80.0396 46.8011 80.0396 47.0251C80.0396 47.2143 79.9872 47.3823 79.8825 47.5292C79.7777 47.6762 79.6315 47.7918 79.4439 47.8762C79.2576 47.9591 79.0416 48.0006 78.7958 48.0006C78.4684 48.0006 78.1986 47.9271 77.9862 47.7802C77.7738 47.6318 77.6378 47.4179 77.5781 47.1386L77.9513 47.047C77.9993 47.2463 78.0931 47.3968 78.2328 47.4987C78.3739 47.6005 78.5594 47.6514 78.7892 47.6514C79.0467 47.6514 79.2526 47.594 79.4068 47.479C79.561 47.3627 79.6381 47.2172 79.6381 47.0426C79.6381 46.9073 79.593 46.7938 79.5028 46.7022C79.4126 46.6091 79.2758 46.5407 79.0925 46.4971L78.5448 46.3661C78.2538 46.2963 78.0385 46.1857 77.8989 46.0344C77.7592 45.8831 77.6894 45.6955 77.6894 45.4714C77.6894 45.2867 77.7396 45.1245 77.84 44.9848C77.9403 44.8437 78.0785 44.7331 78.2546 44.6531C78.4306 44.5731 78.6314 44.5331 78.8569 44.5331C79.1638 44.5331 79.4089 44.6029 79.5922 44.7426C79.777 44.8808 79.9101 45.0714 79.9916 45.3143Z" fill="#434343"/>
<path d="M81.2939 47.9307V44.5789H81.6845V47.9307H81.2939ZM81.4924 44.0029C81.4124 44.0029 81.3441 43.9759 81.2873 43.9221C81.2306 43.8668 81.2022 43.8006 81.2022 43.7235C81.2022 43.6464 81.2306 43.581 81.2873 43.5271C81.3441 43.4719 81.4124 43.4442 81.4924 43.4442C81.5725 43.4442 81.6408 43.4719 81.6976 43.5271C81.7543 43.581 81.7827 43.6464 81.7827 43.7235C81.7827 43.8006 81.7543 43.8668 81.6976 43.9221C81.6408 43.9759 81.5725 44.0029 81.4924 44.0029Z" fill="#434343"/>
<path d="M84.4139 48.0006C84.1244 48.0006 83.8684 47.9271 83.6458 47.7802C83.4247 47.6332 83.2515 47.4303 83.1264 47.1714C83.0013 46.9109 82.9388 46.6105 82.9388 46.2701C82.9388 45.9268 83.0013 45.6249 83.1264 45.3645C83.2515 45.1027 83.4247 44.899 83.6458 44.7535C83.8684 44.6066 84.1244 44.5331 84.4139 44.5331C84.7034 44.5331 84.9587 44.6066 85.1798 44.7535C85.401 44.9004 85.5741 45.1041 85.6992 45.3645C85.8258 45.6249 85.889 45.9268 85.889 46.2701C85.889 46.6105 85.8265 46.9109 85.7014 47.1714C85.5763 47.4303 85.4024 47.6332 85.1798 47.7802C84.9587 47.9271 84.7034 48.0006 84.4139 48.0006ZM84.4139 47.6449C84.6467 47.6449 84.8438 47.5823 85.0053 47.4572C85.1667 47.3321 85.2889 47.1655 85.3719 46.9575C85.4562 46.7495 85.4984 46.5203 85.4984 46.2701C85.4984 46.0199 85.4562 45.79 85.3719 45.5806C85.2889 45.3711 85.1667 45.203 85.0053 45.0765C84.8438 44.9499 84.6467 44.8866 84.4139 44.8866C84.1826 44.8866 83.9855 44.9499 83.8225 45.0765C83.6611 45.203 83.5381 45.3711 83.4537 45.5806C83.3708 45.79 83.3294 46.0199 83.3294 46.2701C83.3294 46.5203 83.3708 46.7495 83.4537 46.9575C83.5381 47.1655 83.6611 47.3321 83.8225 47.4572C83.984 47.5823 84.1811 47.6449 84.4139 47.6449Z" fill="#434343"/>
<path d="M87.5296 45.8359V47.9307H87.1411V44.5789H87.5187V45.1048H87.5536C87.6321 44.9332 87.7543 44.7957 87.9202 44.6924C88.0875 44.5877 88.294 44.5353 88.5399 44.5353C88.7654 44.5353 88.9632 44.5826 89.1335 44.6771C89.3051 44.7702 89.4382 44.9077 89.5328 45.0896C89.6288 45.2714 89.6768 45.4947 89.6768 45.7595V47.9307H89.2884V45.7835C89.2884 45.5085 89.2113 45.2911 89.0571 45.131C88.9043 44.971 88.6992 44.891 88.4417 44.891C88.2657 44.891 88.1093 44.9288 87.9725 45.0045C87.8358 45.0801 87.7274 45.1892 87.6474 45.3318C87.5688 45.4729 87.5296 45.6409 87.5296 45.8359Z" fill="#434343"/>
<path d="M92.0353 48.0071C91.8331 48.0071 91.6483 47.9678 91.481 47.8893C91.3137 47.8093 91.1806 47.6943 91.0817 47.5445C90.9827 47.3932 90.9333 47.2099 90.9333 46.9946C90.9333 46.8288 90.9646 46.6891 91.0271 46.5756C91.0897 46.4621 91.1784 46.369 91.2933 46.2963C91.4083 46.2236 91.5443 46.1661 91.7014 46.1239C91.8585 46.0817 92.0316 46.049 92.2208 46.0257C92.4084 46.0024 92.567 45.9821 92.6965 45.9646C92.8274 45.9472 92.927 45.9195 92.9954 45.8817C93.0638 45.8439 93.098 45.7828 93.098 45.6984V45.6198C93.098 45.3914 93.0296 45.2118 92.8929 45.0808C92.7576 44.9485 92.5626 44.8823 92.308 44.8823C92.0665 44.8823 91.8694 44.9354 91.7167 45.0416C91.5654 45.1478 91.4592 45.2729 91.3981 45.4169L91.0293 45.2838C91.1049 45.1005 91.2097 44.9543 91.3435 44.8452C91.4774 44.7346 91.6272 44.6553 91.7931 44.6073C91.9589 44.5578 92.1269 44.5331 92.2971 44.5331C92.4252 44.5331 92.5583 44.5498 92.6965 44.5833C92.8361 44.6168 92.9656 44.675 93.0849 44.7579C93.2042 44.8393 93.3009 44.9535 93.3751 45.1005C93.4493 45.246 93.4864 45.4307 93.4864 45.6547V47.9307H93.098V47.4005H93.074C93.0274 47.4994 92.9583 47.5954 92.8667 47.6885C92.775 47.7816 92.6601 47.858 92.5219 47.9176C92.3837 47.9773 92.2215 48.0071 92.0353 48.0071ZM92.0876 47.6514C92.2942 47.6514 92.4732 47.6056 92.6245 47.5139C92.7757 47.4223 92.8921 47.3008 92.9736 47.1495C93.0565 46.9968 93.098 46.8288 93.098 46.6454V46.161C93.0689 46.1887 93.0202 46.2134 92.9518 46.2352C92.8849 46.257 92.807 46.2767 92.7183 46.2941C92.631 46.3101 92.5437 46.3239 92.4564 46.3356C92.3691 46.3472 92.2906 46.3574 92.2208 46.3661C92.0316 46.3894 91.8702 46.4258 91.7363 46.4752C91.6025 46.5247 91.4999 46.5931 91.4286 46.6804C91.3573 46.7662 91.3217 46.8768 91.3217 47.0121C91.3217 47.2157 91.3944 47.3736 91.5399 47.4856C91.6854 47.5961 91.868 47.6514 92.0876 47.6514Z" fill="#434343"/>
<path d="M95.3075 43.4617V47.9307H94.9191V43.4617H95.3075Z" fill="#434343"/>
<path d="M100.252 47.9307H98.9432V43.4617H100.331C100.757 43.4617 101.122 43.5504 101.424 43.7279C101.728 43.9054 101.961 44.16 102.123 44.4917C102.284 44.8233 102.365 45.2212 102.365 45.6853C102.365 46.1537 102.282 46.556 102.116 46.892C101.952 47.2266 101.712 47.4834 101.396 47.6623C101.082 47.8413 100.701 47.9307 100.252 47.9307ZM99.3512 47.5641H100.228C100.613 47.5641 100.934 47.4885 101.193 47.3372C101.452 47.1859 101.646 46.9699 101.776 46.6891C101.905 46.4083 101.97 46.0737 101.97 45.6853C101.968 45.2998 101.904 44.9681 101.778 44.6902C101.653 44.4124 101.466 44.1992 101.219 44.0509C100.973 43.9025 100.669 43.8283 100.307 43.8283H99.3512V47.5641Z" fill="#434343"/>
<path d="M103.673 47.9307V44.5789H104.05V45.0939H104.078C104.145 44.9252 104.262 44.7892 104.428 44.6859C104.595 44.5811 104.784 44.5288 104.995 44.5288C105.027 44.5288 105.063 44.5295 105.102 44.5309C105.141 44.5324 105.174 44.5338 105.2 44.5353V44.9303C105.183 44.9274 105.152 44.923 105.108 44.9172C105.065 44.9114 105.017 44.9084 104.967 44.9084C104.792 44.9084 104.636 44.9455 104.5 45.0197C104.364 45.0925 104.257 45.1936 104.179 45.3231C104.1 45.4525 104.061 45.6002 104.061 45.766V47.9307H103.673Z" fill="#434343"/>
<path d="M106.635 49.1877C106.558 49.1877 106.486 49.1804 106.419 49.1658C106.352 49.1513 106.299 49.1353 106.26 49.1178L106.364 48.7752C106.497 48.816 106.615 48.8305 106.718 48.8189C106.821 48.8087 106.913 48.7621 106.993 48.6792C107.073 48.5978 107.144 48.4726 107.207 48.3039L107.329 47.9635L106.096 44.5789H106.517L107.512 47.4179H107.543L108.538 44.5789H108.959L107.541 48.461C107.481 48.6225 107.407 48.7571 107.32 48.8647C107.233 48.9738 107.132 49.0546 107.017 49.1069C106.903 49.1608 106.776 49.1877 106.635 49.1877Z" fill="#434343"/>
<path d="M115.827 44.8583H115.417C115.386 44.7055 115.331 44.5644 115.251 44.4349C115.172 44.304 115.073 44.1898 114.954 44.0923C114.835 43.9949 114.699 43.9192 114.548 43.8654C114.397 43.8115 114.233 43.7846 114.057 43.7846C113.775 43.7846 113.517 43.8581 113.285 44.005C113.053 44.152 112.868 44.368 112.728 44.6531C112.59 44.9368 112.521 45.2845 112.521 45.6962C112.521 46.1108 112.59 46.46 112.728 46.7436C112.868 47.0273 113.053 47.2426 113.285 47.3896C113.517 47.535 113.775 47.6078 114.057 47.6078C114.233 47.6078 114.397 47.5809 114.548 47.527C114.699 47.4732 114.835 47.3983 114.954 47.3023C115.073 47.2048 115.172 47.0906 115.251 46.9597C115.331 46.8287 115.386 46.6869 115.417 46.5342H115.827C115.791 46.7393 115.722 46.9306 115.622 47.1081C115.523 47.2841 115.396 47.4383 115.242 47.5707C115.089 47.7031 114.913 47.8064 114.714 47.8806C114.515 47.9547 114.296 47.9918 114.057 47.9918C113.682 47.9918 113.349 47.898 113.058 47.7103C112.767 47.5212 112.538 47.255 112.373 46.9117C112.208 46.5683 112.126 46.1632 112.126 45.6962C112.126 45.2292 112.208 44.8241 112.373 44.4807C112.538 44.1374 112.767 43.8719 113.058 43.6843C113.349 43.4951 113.682 43.4006 114.057 43.4006C114.296 43.4006 114.515 43.4377 114.714 43.5119C114.913 43.5846 115.089 43.6879 115.242 43.8217C115.396 43.9541 115.523 44.1083 115.622 44.2843C115.722 44.4604 115.791 44.6517 115.827 44.8583Z" fill="#434343"/>
<path d="M117.493 43.4617V47.9307H117.104V43.4617H117.493Z" fill="#434343"/>
<path d="M120.275 48.0006C119.962 48.0006 119.691 47.9278 119.463 47.7824C119.235 47.6354 119.058 47.4325 118.933 47.1735C118.809 46.9131 118.747 46.6134 118.747 46.2745C118.747 45.937 118.809 45.6373 118.933 45.3754C119.058 45.1121 119.23 44.9063 119.45 44.7579C119.671 44.608 119.926 44.5331 120.216 44.5331C120.398 44.5331 120.573 44.5666 120.742 44.6335C120.911 44.699 121.062 44.8001 121.196 44.9368C121.331 45.0721 121.438 45.243 121.517 45.4496C121.595 45.6547 121.634 45.8977 121.634 46.1785V46.3705H119.016V46.0279H121.237C121.237 45.8126 121.194 45.6191 121.106 45.4474C121.02 45.2743 120.9 45.1376 120.746 45.0372C120.593 44.9368 120.417 44.8866 120.216 44.8866C120.004 44.8866 119.817 44.9434 119.655 45.0568C119.494 45.1703 119.367 45.3201 119.275 45.5064C119.185 45.6926 119.139 45.8962 119.138 46.1174V46.3225C119.138 46.5887 119.184 46.8215 119.275 47.0208C119.369 47.2186 119.5 47.3721 119.67 47.4812C119.841 47.5903 120.042 47.6449 120.275 47.6449C120.433 47.6449 120.572 47.6201 120.692 47.5707C120.812 47.5212 120.913 47.455 120.995 47.3721C121.078 47.2877 121.14 47.1954 121.183 47.095L121.551 47.215C121.501 47.3561 121.417 47.4863 121.3 47.6056C121.186 47.7249 121.042 47.8209 120.868 47.8936C120.697 47.9649 120.499 48.0006 120.275 48.0006Z" fill="#434343"/>
<path d="M123.826 48.0071C123.624 48.0071 123.439 47.9678 123.272 47.8893C123.104 47.8093 122.971 47.6943 122.872 47.5445C122.773 47.3932 122.724 47.2099 122.724 46.9946C122.724 46.8288 122.755 46.6891 122.818 46.5756C122.88 46.4621 122.969 46.369 123.084 46.2963C123.199 46.2236 123.335 46.1661 123.492 46.1239C123.649 46.0817 123.822 46.049 124.011 46.0257C124.199 46.0024 124.358 45.9821 124.487 45.9646C124.618 45.9472 124.718 45.9195 124.786 45.8817C124.854 45.8439 124.889 45.7828 124.889 45.6984V45.6198C124.889 45.3914 124.82 45.2118 124.683 45.0808C124.548 44.9485 124.353 44.8823 124.099 44.8823C123.857 44.8823 123.66 44.9354 123.507 45.0416C123.356 45.1478 123.25 45.2729 123.189 45.4169L122.82 45.2838C122.896 45.1005 123 44.9543 123.134 44.8452C123.268 44.7346 123.418 44.6553 123.584 44.6073C123.749 44.5578 123.918 44.5331 124.088 44.5331C124.216 44.5331 124.349 44.5498 124.487 44.5833C124.627 44.6168 124.756 44.675 124.875 44.7579C124.995 44.8393 125.092 44.9535 125.166 45.1005C125.24 45.246 125.277 45.4307 125.277 45.6547V47.9307H124.889V47.4005H124.865C124.818 47.4994 124.749 47.5954 124.657 47.6885C124.566 47.7816 124.451 47.858 124.312 47.9176C124.174 47.9773 124.012 48.0071 123.826 48.0071ZM123.878 47.6514C124.085 47.6514 124.264 47.6056 124.415 47.5139C124.566 47.4223 124.683 47.3008 124.764 47.1495C124.847 46.9968 124.889 46.8288 124.889 46.6454V46.161C124.859 46.1887 124.811 46.2134 124.742 46.2352C124.675 46.257 124.598 46.2767 124.509 46.2941C124.422 46.3101 124.334 46.3239 124.247 46.3356C124.16 46.3472 124.081 46.3574 124.011 46.3661C123.822 46.3894 123.661 46.4258 123.527 46.4752C123.393 46.5247 123.291 46.5931 123.219 46.6804C123.148 46.7662 123.112 46.8768 123.112 47.0121C123.112 47.2157 123.185 47.3736 123.331 47.4856C123.476 47.5961 123.659 47.6514 123.878 47.6514Z" fill="#434343"/>
<path d="M127.098 45.8359V47.9307H126.71V44.5789H127.087V45.1048H127.122C127.201 44.9332 127.323 44.7957 127.489 44.6924C127.656 44.5877 127.863 44.5353 128.108 44.5353C128.334 44.5353 128.532 44.5826 128.702 44.6771C128.874 44.7702 129.007 44.9077 129.101 45.0896C129.197 45.2714 129.245 45.4947 129.245 45.7595V47.9307H128.857V45.7835C128.857 45.5085 128.78 45.2911 128.626 45.131C128.473 44.971 128.268 44.891 128.01 44.891C127.834 44.891 127.678 44.9288 127.541 45.0045C127.404 45.0801 127.296 45.1892 127.216 45.3318C127.137 45.4729 127.098 45.6409 127.098 45.8359Z" fill="#434343"/>
<path d="M130.672 47.9307V44.5789H131.063V47.9307H130.672ZM130.871 44.0029C130.791 44.0029 130.722 43.9759 130.665 43.9221C130.609 43.8668 130.58 43.8006 130.58 43.7235C130.58 43.6464 130.609 43.581 130.665 43.5271C130.722 43.4719 130.791 43.4442 130.871 43.4442C130.951 43.4442 131.019 43.4719 131.076 43.5271C131.132 43.581 131.161 43.6464 131.161 43.7235C131.161 43.8006 131.132 43.8668 131.076 43.9221C131.019 43.9759 130.951 44.0029 130.871 44.0029Z" fill="#434343"/>
<path d="M132.878 45.8359V47.9307H132.489V44.5789H132.867V45.1048H132.902C132.98 44.9332 133.102 44.7957 133.268 44.6924C133.436 44.5877 133.642 44.5353 133.888 44.5353C134.114 44.5353 134.311 44.5826 134.482 44.6771C134.653 44.7702 134.786 44.9077 134.881 45.0896C134.977 45.2714 135.025 45.4947 135.025 45.7595V47.9307H134.637V45.7835C134.637 45.5085 134.559 45.2911 134.405 45.131C134.252 44.971 134.047 44.891 133.79 44.891C133.614 44.891 133.457 44.9288 133.321 45.0045C133.184 45.0801 133.076 45.1892 132.996 45.3318C132.917 45.4729 132.878 45.6409 132.878 45.8359Z" fill="#434343"/>
<path d="M137.726 49.2575C137.498 49.2575 137.298 49.2277 137.126 49.168C136.954 49.1098 136.81 49.0298 136.692 48.928C136.574 48.8262 136.482 48.712 136.417 48.5854L136.735 48.3759C136.783 48.4603 136.847 48.5432 136.927 48.6247C137.009 48.7061 137.114 48.7738 137.244 48.8276C137.375 48.8814 137.535 48.9083 137.726 48.9083C138.023 48.9083 138.262 48.8342 138.444 48.6858C138.627 48.5374 138.719 48.3068 138.719 47.994V47.239H138.684C138.639 47.3408 138.574 47.4427 138.49 47.5445C138.405 47.6449 138.295 47.7285 138.158 47.7954C138.023 47.8624 137.855 47.8958 137.654 47.8958C137.386 47.8958 137.148 47.8296 136.94 47.6973C136.734 47.5649 136.571 47.3757 136.452 47.1299C136.334 46.8826 136.275 46.588 136.275 46.2461C136.275 45.9072 136.332 45.6089 136.447 45.3514C136.564 45.0939 136.726 44.8932 136.934 44.7492C137.142 44.6051 137.384 44.5331 137.661 44.5331C137.866 44.5331 138.036 44.5695 138.171 44.6422C138.306 44.7135 138.415 44.8022 138.496 44.9084C138.579 45.0146 138.644 45.1179 138.691 45.2183H138.73V44.5789H139.11V48.018C139.11 48.3017 139.049 48.5352 138.928 48.7185C138.808 48.9018 138.643 49.0371 138.435 49.1244C138.227 49.2131 137.991 49.2575 137.726 49.2575ZM137.7 47.5401C137.915 47.5401 138.099 47.4885 138.252 47.3852C138.405 47.2805 138.522 47.1306 138.603 46.9357C138.685 46.7407 138.725 46.5087 138.725 46.2396C138.725 45.9777 138.685 45.7457 138.605 45.5435C138.525 45.3398 138.409 45.1798 138.256 45.0634C138.105 44.9455 137.92 44.8866 137.7 44.8866C137.476 44.8866 137.287 44.947 137.132 45.0677C136.978 45.1885 136.862 45.3514 136.783 45.5566C136.705 45.7602 136.666 45.9879 136.666 46.2396C136.666 46.4956 136.706 46.7218 136.786 46.9182C136.866 47.1132 136.983 47.2659 137.137 47.3765C137.291 47.4856 137.479 47.5401 137.7 47.5401Z" fill="#434343"/>
<path d="M145.172 44.5789C145.148 44.3302 145.038 44.1323 144.843 43.9854C144.648 43.8385 144.403 43.765 144.107 43.765C143.899 43.765 143.716 43.8006 143.557 43.8719C143.4 43.9432 143.277 44.0421 143.187 44.1687C143.098 44.2938 143.053 44.4364 143.053 44.5964C143.053 44.7142 143.079 44.8175 143.13 44.9063C143.181 44.995 143.249 45.0714 143.335 45.1354C143.422 45.1979 143.518 45.2518 143.623 45.2969C143.729 45.342 143.836 45.3798 143.944 45.4103L144.415 45.5456C144.558 45.5849 144.7 45.6351 144.843 45.6962C144.985 45.7573 145.116 45.8344 145.233 45.9275C145.353 46.0192 145.448 46.1319 145.519 46.2658C145.592 46.3981 145.628 46.5574 145.628 46.7436C145.628 46.9822 145.567 47.1968 145.443 47.3874C145.319 47.578 145.142 47.7293 144.91 47.8413C144.679 47.9518 144.402 48.0071 144.079 48.0071C143.775 48.0071 143.511 47.9569 143.287 47.8565C143.063 47.7547 142.887 47.6143 142.759 47.4354C142.631 47.2565 142.559 47.0491 142.543 46.8135H142.962C142.976 46.9895 143.034 47.1386 143.136 47.2608C143.238 47.383 143.371 47.4761 143.533 47.5401C143.696 47.6027 143.878 47.634 144.079 47.634C144.302 47.634 144.499 47.5969 144.673 47.5227C144.847 47.447 144.984 47.3423 145.083 47.2084C145.183 47.0732 145.233 46.916 145.233 46.7371C145.233 46.5858 145.194 46.4592 145.116 46.3574C145.037 46.2541 144.927 46.1676 144.786 46.0977C144.646 46.0279 144.484 45.9661 144.299 45.9122L143.765 45.7551C143.414 45.6504 143.142 45.5056 142.949 45.3209C142.755 45.1361 142.658 44.9004 142.658 44.6139C142.658 44.3738 142.722 44.1629 142.85 43.981C142.98 43.7977 143.155 43.6552 143.374 43.5533C143.595 43.45 143.843 43.3984 144.118 43.3984C144.396 43.3984 144.642 43.4493 144.856 43.5511C145.07 43.653 145.239 43.7934 145.364 43.9723C145.491 44.1498 145.559 44.352 145.567 44.5789H145.172Z" fill="#434343"/>
<path d="M148.284 48.0006C147.971 48.0006 147.701 47.9278 147.472 47.7824C147.244 47.6354 147.067 47.4325 146.942 47.1735C146.818 46.9131 146.757 46.6134 146.757 46.2745C146.757 45.937 146.818 45.6373 146.942 45.3754C147.067 45.1121 147.24 44.9063 147.459 44.7579C147.68 44.608 147.936 44.5331 148.225 44.5331C148.407 44.5331 148.582 44.5666 148.751 44.6335C148.92 44.699 149.071 44.8001 149.205 44.9368C149.34 45.0721 149.447 45.243 149.526 45.4496C149.604 45.6547 149.644 45.8977 149.644 46.1785V46.3705H147.025V46.0279H149.246C149.246 45.8126 149.203 45.6191 149.116 45.4474C149.03 45.2743 148.91 45.1376 148.755 45.0372C148.603 44.9368 148.426 44.8866 148.225 44.8866C148.013 44.8866 147.826 44.9434 147.664 45.0568C147.503 45.1703 147.376 45.3201 147.285 45.5064C147.195 45.6926 147.149 45.8962 147.147 46.1174V46.3225C147.147 46.5887 147.193 46.8215 147.285 47.0208C147.378 47.2186 147.509 47.3721 147.68 47.4812C147.85 47.5903 148.051 47.6449 148.284 47.6449C148.443 47.6449 148.582 47.6201 148.701 47.5707C148.822 47.5212 148.923 47.455 149.004 47.3721C149.087 47.2877 149.15 47.1954 149.192 47.095L149.561 47.215C149.51 47.3561 149.426 47.4863 149.31 47.6056C149.195 47.7249 149.051 47.8209 148.878 47.8936C148.706 47.9649 148.508 48.0006 148.284 48.0006Z" fill="#434343"/>
<path d="M150.899 47.9307V44.5789H151.277V45.0939H151.305C151.372 44.9252 151.488 44.7892 151.654 44.6859C151.821 44.5811 152.01 44.5288 152.221 44.5288C152.253 44.5288 152.289 44.5295 152.328 44.5309C152.368 44.5324 152.4 44.5338 152.427 44.5353V44.9303C152.409 44.9274 152.378 44.923 152.335 44.9172C152.291 44.9114 152.244 44.9084 152.193 44.9084C152.018 44.9084 151.863 44.9455 151.726 45.0197C151.591 45.0925 151.484 45.1936 151.405 45.3231C151.327 45.4525 151.287 45.6002 151.287 45.766V47.9307H150.899Z" fill="#434343"/>
<path d="M156.185 44.5789L154.961 47.9307H154.547L153.322 44.5789H153.744L154.739 47.4179H154.769L155.764 44.5789H156.185Z" fill="#434343"/>
<path d="M157.349 47.9307V44.5789H157.74V47.9307H157.349ZM157.548 44.0029C157.468 44.0029 157.399 43.9759 157.343 43.9221C157.286 43.8668 157.257 43.8006 157.257 43.7235C157.257 43.6464 157.286 43.581 157.343 43.5271C157.399 43.4719 157.468 43.4442 157.548 43.4442C157.628 43.4442 157.696 43.4719 157.753 43.5271C157.81 43.581 157.838 43.6464 157.838 43.7235C157.838 43.8006 157.81 43.8668 157.753 43.9221C157.696 43.9759 157.628 44.0029 157.548 44.0029Z" fill="#434343"/>
<path d="M160.476 48.0006C160.176 48.0006 159.915 47.9256 159.692 47.7758C159.471 47.626 159.299 47.4208 159.177 47.1604C159.055 46.9 158.994 46.6033 158.994 46.2701C158.994 45.9341 159.056 45.6351 159.179 45.3732C159.305 45.1114 159.478 44.9063 159.699 44.7579C159.92 44.608 160.177 44.5331 160.469 44.5331C160.693 44.5331 160.896 44.5768 161.078 44.664C161.26 44.7499 161.41 44.8714 161.527 45.0285C161.647 45.1841 161.722 45.366 161.752 45.574H161.359C161.319 45.3849 161.221 45.2234 161.065 45.0896C160.911 44.9543 160.714 44.8866 160.476 44.8866C160.262 44.8866 160.073 44.9448 159.908 45.0612C159.744 45.1761 159.615 45.3369 159.522 45.5435C159.43 45.7486 159.385 45.9864 159.385 46.257C159.385 46.5291 159.43 46.7698 159.52 46.9793C159.61 47.1874 159.737 47.3503 159.9 47.4681C160.064 47.586 160.256 47.6449 160.476 47.6449C160.624 47.6449 160.759 47.6172 160.882 47.562C161.005 47.5052 161.108 47.4252 161.191 47.3219C161.276 47.2186 161.333 47.0957 161.362 46.9531H161.754C161.725 47.1553 161.653 47.3357 161.538 47.4943C161.425 47.6514 161.277 47.7751 161.095 47.8653C160.915 47.9555 160.708 48.0006 160.476 48.0006Z" fill="#434343"/>
<path d="M164.341 48.0006C164.029 48.0006 163.758 47.9278 163.53 47.7824C163.301 47.6354 163.125 47.4325 162.999 47.1735C162.876 46.9131 162.814 46.6134 162.814 46.2745C162.814 45.937 162.876 45.6373 162.999 45.3754C163.125 45.1121 163.297 44.9063 163.517 44.7579C163.738 44.608 163.993 44.5331 164.283 44.5331C164.464 44.5331 164.64 44.5666 164.808 44.6335C164.977 44.699 165.128 44.8001 165.262 44.9368C165.398 45.0721 165.505 45.243 165.583 45.4496C165.662 45.6547 165.701 45.8977 165.701 46.1785V46.3705H163.082V46.0279H165.304C165.304 45.8126 165.26 45.6191 165.173 45.4474C165.087 45.2743 164.967 45.1376 164.813 45.0372C164.66 44.9368 164.483 44.8866 164.283 44.8866C164.07 44.8866 163.883 44.9434 163.722 45.0568C163.56 45.1703 163.434 45.3201 163.342 45.5064C163.252 45.6926 163.206 45.8962 163.205 46.1174V46.3225C163.205 46.5887 163.25 46.8215 163.342 47.0208C163.435 47.2186 163.567 47.3721 163.737 47.4812C163.907 47.5903 164.109 47.6449 164.341 47.6449C164.5 47.6449 164.639 47.6201 164.758 47.5707C164.879 47.5212 164.98 47.455 165.062 47.3721C165.145 47.2877 165.207 47.1954 165.249 47.095L165.618 47.215C165.567 47.3561 165.483 47.4863 165.367 47.6056C165.252 47.7249 165.108 47.8209 164.935 47.8936C164.763 47.9649 164.565 48.0006 164.341 48.0006Z" fill="#434343"/>
<path d="M169.208 45.3143L168.853 45.4147C168.818 45.3143 168.768 45.2234 168.704 45.1419C168.64 45.0605 168.557 44.9957 168.453 44.9477C168.351 44.8997 168.225 44.8757 168.074 44.8757C167.847 44.8757 167.66 44.9295 167.515 45.0372C167.369 45.1448 167.297 45.2838 167.297 45.454C167.297 45.598 167.346 45.7151 167.445 45.8053C167.546 45.8941 167.7 45.9646 167.908 46.017L168.414 46.1414C168.695 46.2097 168.905 46.3181 169.045 46.4665C169.186 46.6149 169.256 46.8011 169.256 47.0251C169.256 47.2143 169.204 47.3823 169.099 47.5292C168.994 47.6762 168.848 47.7918 168.661 47.8762C168.474 47.9591 168.258 48.0006 168.012 48.0006C167.685 48.0006 167.415 47.9271 167.203 47.7802C166.991 47.6318 166.854 47.4179 166.795 47.1386L167.168 47.047C167.216 47.2463 167.31 47.3968 167.449 47.4987C167.591 47.6005 167.776 47.6514 168.006 47.6514C168.263 47.6514 168.469 47.594 168.623 47.479C168.778 47.3627 168.855 47.2172 168.855 47.0426C168.855 46.9073 168.81 46.7938 168.72 46.7022C168.629 46.6091 168.493 46.5407 168.309 46.4971L167.762 46.3661C167.471 46.2963 167.255 46.1857 167.116 46.0344C166.976 45.8831 166.906 45.6955 166.906 45.4714C166.906 45.2867 166.956 45.1245 167.057 44.9848C167.157 44.8437 167.295 44.7331 167.471 44.6531C167.647 44.5731 167.848 44.5331 168.074 44.5331C168.381 44.5331 168.626 44.6029 168.809 44.7426C168.994 44.8808 169.127 45.0714 169.208 45.3143Z" fill="#434343"/>
<path d="M65.7718 35.3336H56.4644V22.3715H60.0379V33.6863H65.7718V35.3336Z" fill="url(#paint0_linear_610_6892)"/>
<path d="M78.2402 35.3336H75.1977V34.0914C74.8377 34.5834 74.4026 34.9495 73.8925 35.1895C73.3885 35.4236 72.8334 35.5406 72.2273 35.5406C71.4351 35.5406 70.727 35.3996 70.1029 35.1175C69.4788 34.8355 68.9508 34.4514 68.5187 33.9653C68.0866 33.4733 67.7566 32.8972 67.5285 32.2371C67.3005 31.577 67.1865 30.8689 67.1865 30.1127C67.1865 29.3566 67.3005 28.6485 67.5285 27.9884C67.7566 27.3283 68.0866 26.7552 68.5187 26.2691C68.9508 25.7771 69.4788 25.39 70.1029 25.108C70.727 24.8259 71.4351 24.6849 72.2273 24.6849C72.6293 24.6849 73.0104 24.7449 73.3705 24.8649C73.7365 24.9849 74.0696 25.156 74.3696 25.378C74.6757 25.594 74.9427 25.8581 75.1707 26.1701C75.4048 26.4762 75.5878 26.8182 75.7198 27.1963L77.07 24.9369H78.2402V35.3336ZM75.1797 30.1127C75.1797 29.8427 75.1647 29.5577 75.1347 29.2576C75.1107 28.9576 75.0657 28.6605 74.9997 28.3665C74.9337 28.0724 74.8407 27.7934 74.7207 27.5293C74.6066 27.2593 74.4566 27.0223 74.2706 26.8182C74.0906 26.6082 73.8715 26.4432 73.6135 26.3231C73.3554 26.2031 73.0554 26.1431 72.7133 26.1431C72.3713 26.1431 72.0742 26.2061 71.8222 26.3321C71.5702 26.4522 71.3541 26.6172 71.1741 26.8272C70.9941 27.0313 70.8441 27.2683 70.724 27.5383C70.61 27.8084 70.52 28.0904 70.454 28.3845C70.388 28.6785 70.34 28.9756 70.31 29.2756C70.286 29.5697 70.274 29.8487 70.274 30.1127C70.274 30.3768 70.286 30.6588 70.31 30.9589C70.34 31.2589 70.388 31.556 70.454 31.85C70.52 32.1441 70.61 32.4261 70.724 32.6961C70.8441 32.9662 70.9941 33.2062 71.1741 33.4163C71.3541 33.6203 71.5702 33.7853 71.8222 33.9113C72.0742 34.0314 72.3713 34.0914 72.7133 34.0914C73.0254 34.0914 73.3014 34.0284 73.5415 33.9023C73.7875 33.7703 74.0006 33.5963 74.1806 33.3803C74.3666 33.1642 74.5226 32.9182 74.6487 32.6421C74.7747 32.3661 74.8767 32.0811 74.9547 31.787C75.0327 31.493 75.0897 31.2019 75.1257 30.9139C75.1617 30.6198 75.1797 30.3528 75.1797 30.1127Z" fill="url(#paint1_linear_610_6892)"/>
<path d="M81.0861 30.8869C81.0861 30.4128 81.1251 29.9207 81.2031 29.4106C81.2871 28.9006 81.4042 28.3905 81.5542 27.8804C81.7102 27.3703 81.8962 26.8662 82.1123 26.3682C82.3283 25.8701 82.5713 25.393 82.8414 24.9369H85.0647C84.9147 25.387 84.7797 25.8581 84.6597 26.3502C84.5456 26.8362 84.4466 27.3253 84.3626 27.8174C84.2846 28.3035 84.2216 28.7805 84.1736 29.2486C84.1316 29.7167 84.1106 30.1517 84.1106 30.5538C84.1106 30.7878 84.1196 31.0399 84.1376 31.3099C84.1616 31.574 84.2006 31.841 84.2546 32.1111C84.3086 32.3751 84.3836 32.6301 84.4796 32.8762C84.5817 33.1222 84.7107 33.3412 84.8667 33.5333C85.0227 33.7193 85.2118 33.8693 85.4338 33.9833C85.6618 34.0914 85.9289 34.1454 86.2349 34.1454C86.535 34.1454 86.802 34.0794 87.036 33.9473C87.2761 33.8093 87.4861 33.6323 87.6661 33.4163C87.8462 33.1942 87.9992 32.9422 88.1252 32.6601C88.2512 32.3781 88.3532 32.0901 88.4313 31.796C88.5153 31.496 88.5753 31.2049 88.6113 30.9229C88.6533 30.6348 88.6743 30.3768 88.6743 30.1487V24.9369H91.7168V35.3336H90.5466L89.1514 32.9122C88.9773 33.3142 88.7643 33.6803 88.5123 34.0104C88.2662 34.3344 87.9842 34.6134 87.6661 34.8475C87.3481 35.0815 86.994 35.2616 86.604 35.3876C86.2199 35.5136 85.8028 35.5766 85.3528 35.5766C84.6327 35.5766 84.0056 35.4596 83.4715 35.2255C82.9374 34.9915 82.4933 34.6675 82.1393 34.2534C81.7852 33.8393 81.5212 33.3472 81.3471 32.7772C81.1731 32.2011 81.0861 31.571 81.0861 30.8869Z" fill="url(#paint2_linear_610_6892)"/>
<path d="M105.715 29.3746C105.715 30.0767 105.628 30.8089 105.454 31.571C105.286 32.3331 105.049 33.0802 104.743 33.8123C104.437 34.5444 104.071 35.2315 103.645 35.8736C103.219 36.5217 102.751 37.0798 102.241 37.5479L101.098 36.9268C101.26 36.6268 101.413 36.2907 101.557 35.9187C101.701 35.5466 101.83 35.1535 101.944 34.7395C102.064 34.3194 102.169 33.8873 102.259 33.4433C102.355 32.9992 102.433 32.5611 102.493 32.1291C102.559 31.691 102.607 31.2679 102.637 30.8599C102.673 30.4458 102.691 30.0617 102.691 29.7077C102.691 29.4736 102.682 29.2246 102.664 28.9606C102.646 28.6905 102.607 28.4235 102.547 28.1594C102.493 27.8894 102.418 27.6314 102.322 27.3853C102.226 27.1393 102.097 26.9232 101.935 26.7372C101.779 26.5512 101.587 26.4012 101.359 26.2871C101.137 26.1731 100.873 26.1161 100.567 26.1161C100.267 26.1161 99.9995 26.1851 99.7655 26.3231C99.5314 26.4552 99.3244 26.6322 99.1444 26.8542C98.9644 27.0703 98.8083 27.3193 98.6763 27.6013C98.5503 27.8834 98.4453 28.1744 98.3613 28.4745C98.2832 28.7685 98.2262 29.0596 98.1902 29.3476C98.1542 29.6357 98.1362 29.8937 98.1362 30.1217V35.3336H95.0847V24.9369H96.2549L97.6501 27.3583C97.8182 26.9562 98.0282 26.5902 98.2802 26.2601C98.5323 25.9301 98.8173 25.648 99.1354 25.414C99.4534 25.18 99.8045 24.9999 100.189 24.8739C100.579 24.7479 100.999 24.6849 101.449 24.6849C102.169 24.6849 102.796 24.8019 103.33 25.0359C103.864 25.27 104.308 25.597 104.662 26.0171C105.016 26.4312 105.28 26.9262 105.454 27.5023C105.628 28.0724 105.715 28.6965 105.715 29.3746Z" fill="url(#paint3_linear_610_6892)"/>
<path d="M119.03 35.3336H117.86L116.51 33.0742C116.378 33.4523 116.194 33.7943 115.96 34.1004C115.732 34.4064 115.465 34.6705 115.159 34.8925C114.859 35.1085 114.526 35.2766 114.16 35.3966C113.8 35.5166 113.419 35.5766 113.017 35.5766C112.225 35.5766 111.517 35.4356 110.893 35.1535C110.269 34.8715 109.74 34.4874 109.308 34.0014C108.876 33.5093 108.546 32.9332 108.318 32.2731C108.09 31.613 107.976 30.9049 107.976 30.1487C107.976 29.3926 108.09 28.6845 108.318 28.0244C108.546 27.3643 108.876 26.7912 109.308 26.3051C109.74 25.8191 110.269 25.435 110.893 25.153C111.517 24.8709 112.225 24.7299 113.017 24.7299C113.623 24.7299 114.178 24.8469 114.682 25.081C115.192 25.315 115.627 25.681 115.987 26.1791V21.1113H119.03V35.3336ZM115.969 30.1487C115.969 29.9087 115.951 29.6447 115.915 29.3566C115.879 29.0686 115.822 28.7775 115.744 28.4835C115.666 28.1894 115.564 27.9044 115.438 27.6284C115.312 27.3523 115.156 27.1063 114.97 26.8902C114.79 26.6742 114.577 26.5032 114.331 26.3772C114.091 26.2451 113.815 26.1791 113.503 26.1791C113.161 26.1791 112.864 26.2421 112.612 26.3682C112.36 26.4882 112.144 26.6532 111.964 26.8632C111.784 27.0673 111.634 27.3043 111.514 27.5743C111.4 27.8444 111.31 28.1264 111.244 28.4205C111.178 28.7145 111.13 29.0116 111.1 29.3116C111.076 29.6057 111.064 29.8847 111.064 30.1487C111.064 30.4128 111.076 30.6948 111.1 30.9949C111.13 31.2889 111.178 31.583 111.244 31.877C111.31 32.1711 111.4 32.4561 111.514 32.7322C111.634 33.0022 111.784 33.2422 111.964 33.4523C112.144 33.6563 112.36 33.8213 112.612 33.9473C112.864 34.0674 113.161 34.1274 113.503 34.1274C113.845 34.1274 114.145 34.0674 114.403 33.9473C114.661 33.8273 114.88 33.6653 115.06 33.4613C115.246 33.2512 115.396 33.0142 115.51 32.7502C115.63 32.4801 115.723 32.1981 115.789 31.904C115.855 31.604 115.9 31.3039 115.924 31.0039C115.954 30.7038 115.969 30.4188 115.969 30.1487Z" fill="url(#paint4_linear_610_6892)"/>
<path d="M131.237 25.8551L129.527 28.6905C129.455 28.4505 129.362 28.1804 129.248 27.8804C129.134 27.5803 128.993 27.3013 128.825 27.0433C128.657 26.7792 128.456 26.5602 128.222 26.3862C127.988 26.2061 127.718 26.1161 127.412 26.1161C127.13 26.1161 126.884 26.1881 126.674 26.3321C126.47 26.4762 126.296 26.6652 126.152 26.8992C126.007 27.1273 125.887 27.3883 125.791 27.6824C125.701 27.9704 125.629 28.2645 125.575 28.5645C125.527 28.8585 125.494 29.1436 125.476 29.4196C125.458 29.6897 125.449 29.9237 125.449 30.1217V35.3336H122.398V24.9369H123.568L124.801 27.3583C124.969 26.9682 125.161 26.6112 125.377 26.2871C125.593 25.9571 125.842 25.675 126.124 25.441C126.407 25.201 126.725 25.0149 127.079 24.8829C127.439 24.7509 127.844 24.6849 128.294 24.6849C128.528 24.6849 128.789 24.7059 129.077 24.7479C129.365 24.7839 129.647 24.8499 129.923 24.9459C130.199 25.0359 130.454 25.156 130.688 25.306C130.922 25.456 131.105 25.639 131.237 25.8551Z" fill="url(#paint5_linear_610_6892)"/>
<path d="M142.653 24.9369L138.872 34.0824C138.44 35.1265 137.957 36.1587 137.423 37.1789C136.895 38.205 136.322 39.1892 135.703 40.1313L134.515 39.4112C134.665 39.1412 134.842 38.8291 135.046 38.4751C135.25 38.121 135.451 37.7549 135.649 37.3769C135.847 36.9988 136.03 36.6238 136.199 36.2517C136.367 35.8856 136.496 35.5496 136.586 35.2435L132.04 24.9369H135.082L138.17 31.967L140.546 24.9369H142.653Z" fill="url(#paint6_linear_610_6892)"/>
<path d="M156.327 26.2691C156.327 26.8032 156.255 27.2653 156.111 27.6554C155.967 28.0394 155.772 28.3695 155.526 28.6455C155.28 28.9216 154.989 29.1556 154.653 29.3476C154.323 29.5337 153.969 29.6987 153.591 29.8427C153.213 29.9867 152.82 30.1157 152.412 30.2298C152.009 30.3438 151.61 30.4638 151.214 30.5898C150.818 30.7158 150.437 30.8599 150.071 31.0219C149.705 31.1839 149.375 31.3849 149.081 31.625C148.787 31.859 148.535 32.1441 148.325 32.4801C148.115 32.8102 147.971 33.2092 147.893 33.6773H156.327V35.3336H144.049C144.181 34.5054 144.37 33.7913 144.616 33.1912C144.862 32.5851 145.147 32.066 145.471 31.634C145.795 31.2019 146.147 30.8419 146.525 30.5538C146.909 30.2598 147.302 30.0137 147.704 29.8157C148.106 29.6117 148.511 29.4436 148.919 29.3116C149.327 29.1736 149.72 29.0416 150.098 28.9156C150.476 28.7895 150.827 28.6575 151.151 28.5195C151.481 28.3755 151.766 28.1984 152.006 27.9884C152.252 27.7784 152.445 27.5233 152.583 27.2233C152.721 26.9172 152.79 26.5392 152.79 26.0891C152.79 25.681 152.721 25.324 152.583 25.0179C152.445 24.7119 152.255 24.4569 152.015 24.2528C151.775 24.0488 151.49 23.8958 151.16 23.7937C150.836 23.6917 150.488 23.6407 150.116 23.6407C149.726 23.6407 149.363 23.7127 149.027 23.8568C148.697 24.0008 148.397 24.2048 148.127 24.4689C147.863 24.7269 147.632 25.0389 147.434 25.405C147.242 25.7711 147.095 26.1791 146.993 26.6292L144.229 25.099C144.475 24.5949 144.823 24.1568 145.273 23.7847C145.729 23.4127 146.234 23.1036 146.786 22.8576C147.338 22.6056 147.911 22.4195 148.505 22.2995C149.105 22.1735 149.672 22.1105 150.206 22.1105C150.722 22.1105 151.232 22.1315 151.736 22.1735C152.24 22.2155 152.718 22.2935 153.168 22.4075C153.624 22.5215 154.044 22.6776 154.428 22.8756C154.812 23.0736 155.145 23.3287 155.427 23.6407C155.709 23.9468 155.928 24.3158 156.084 24.7479C156.246 25.18 156.327 25.687 156.327 26.2691Z" fill="url(#paint7_linear_610_6892)"/>
<path d="M169.867 32.3811H168.967V35.3336H165.393V32.3811H157.985C158.147 31.691 158.357 30.9859 158.615 30.2658C158.873 29.5457 159.164 28.8345 159.488 28.1324C159.818 27.4303 160.175 26.7432 160.559 26.0711C160.943 25.399 161.345 24.7659 161.765 24.1718H164.259C163.743 25.0299 163.311 25.8521 162.963 26.6382C162.621 27.4243 162.345 28.1234 162.134 28.7355C161.888 29.4496 161.696 30.1157 161.558 30.7338H165.393V22.3715H168.967V30.7338H169.867V32.3811Z" fill="url(#paint8_linear_610_6892)"/>
<path d="M34.2994 24.9927L34.6406 25.1129L34.8616 24.8264C35.4897 24.0117 36.1504 23.6652 36.7913 23.5062C37.3218 23.3745 37.8317 23.3682 38.3622 23.3616C38.5089 23.3598 38.6571 23.358 38.8077 23.3535C39.4522 23.3342 40.2015 23.2639 40.7503 22.6952C41.2177 22.2107 41.4553 21.4544 41.5106 20.3561L44.298 20.4882L44.6157 21.7367C45.6677 25.8706 45.0345 30.2531 42.8552 33.9201C40.676 37.5871 37.1293 40.2382 32.9954 41.2903C28.8615 42.3423 24.479 41.709 20.812 39.5298C17.4307 37.5204 14.9132 34.3483 13.7166 30.6252L14.1124 30.7792C14.2915 31.3 14.581 31.6706 14.9772 31.913C15.4093 32.1774 15.9123 32.2525 16.3704 32.29C16.5557 32.3052 16.7379 32.3154 16.9174 32.3255C17.6863 32.3687 18.4055 32.4091 19.101 32.8224C19.7733 33.2219 20.4969 33.1525 21.1601 32.9012C21.8131 32.6539 22.476 32.2064 23.1029 31.7389C23.382 31.5308 23.6472 31.3243 23.9072 31.1219C24.2614 30.8461 24.6059 30.5779 24.9625 30.3235C25.4921 29.9457 25.9658 29.6619 26.3838 29.5179C26.9726 29.8272 27.4956 29.9952 27.9674 30.0168C28.5099 30.0416 28.9548 29.8712 29.3113 29.5648C29.6513 29.2726 29.8898 28.8753 30.0775 28.4749C30.246 28.1157 30.3912 27.714 30.5298 27.3303C30.546 27.2857 30.562 27.2413 30.578 27.1972C30.9015 26.3054 31.2073 25.5515 31.7265 25.1107C32.1838 24.7225 32.9104 24.5032 34.2994 24.9927Z" fill="url(#paint9_linear_610_6892)" stroke="white"/>
<path d="M30.9635 23.1965C30.9635 23.7306 30.8915 24.1927 30.7474 24.5827C30.6034 24.9668 30.4084 25.2968 30.1623 25.5729C29.9163 25.8489 29.6253 26.0829 29.2892 26.275C28.9592 26.461 28.6051 26.626 28.227 26.7701C27.849 26.9141 27.4559 27.0431 27.0479 27.1571C26.6458 27.2711 26.2467 27.3912 25.8507 27.5172C25.4546 27.6432 25.0736 27.7872 24.7075 27.9492C24.3414 28.1113 24.0114 28.3123 23.7173 28.5523C23.4233 28.7864 23.1713 29.0714 22.9612 29.4075C22.7512 29.7375 22.6072 30.1366 22.5292 30.6047H30.9635V32.2609H18.6855C18.8176 31.4328 19.0066 30.7187 19.2526 30.1186C19.4987 29.5125 19.7837 28.9934 20.1078 28.5613C20.4318 28.1293 20.7829 27.7692 21.1609 27.4812C21.545 27.1871 21.9381 26.9411 22.3401 26.7431C22.7422 26.539 23.1472 26.371 23.5553 26.239C23.9634 26.101 24.3564 25.9689 24.7345 25.8429C25.1126 25.7169 25.4636 25.5849 25.7877 25.4468C26.1177 25.3028 26.4028 25.1258 26.6428 24.9158C26.8888 24.7057 27.0809 24.4507 27.2189 24.1506C27.3569 23.8446 27.4259 23.4665 27.4259 23.0165C27.4259 22.6084 27.3569 22.2513 27.2189 21.9453C27.0809 21.6393 26.8918 21.3842 26.6518 21.1802C26.4118 20.9761 26.1267 20.8231 25.7967 20.7211C25.4726 20.6191 25.1246 20.5681 24.7525 20.5681C24.3624 20.5681 23.9994 20.6401 23.6633 20.7841C23.3333 20.9281 23.0332 21.1322 22.7632 21.3962C22.4991 21.6543 22.2681 21.9663 22.0701 22.3324C21.878 22.6984 21.731 23.1065 21.629 23.5566L18.8656 22.0263C19.1116 21.5222 19.4597 21.0842 19.9097 20.7121C20.3658 20.34 20.8699 20.031 21.422 19.785C21.9741 19.5329 22.5472 19.3469 23.1412 19.2269C23.7413 19.1009 24.3084 19.0378 24.8425 19.0378C25.3586 19.0378 25.8687 19.0588 26.3728 19.1009C26.8768 19.1429 27.3539 19.2209 27.804 19.3349C28.2601 19.4489 28.6801 19.6049 29.0642 19.803C29.4482 20.001 29.7813 20.256 30.0633 20.5681C30.3454 20.8741 30.5644 21.2432 30.7204 21.6753C30.8825 22.1073 30.9635 22.6144 30.9635 23.1965Z" fill="#777777"/>
<path d="M13.0159 27.5902L10.644 25.896L10.644 28.8108C10.644 33.6069 12.5493 38.2065 15.9406 41.5979C19.332 44.9892 23.9317 46.8945 28.7278 46.8945C33.5239 46.8945 38.1235 44.9893 41.5149 41.5979C44.9062 38.2065 46.8115 33.6069 46.8115 28.8108V27.1524V26.0423L45.7498 25.7179L42.238 24.6448L40.7352 24.1856L40.3463 25.7082C40.0882 26.7187 39.8479 27.0122 39.7879 27.0738C39.7359 27.0768 39.581 27.0737 39.2192 26.9931C39.1348 26.9743 39.0356 26.9499 38.9241 26.9226C38.4026 26.7947 37.6117 26.6007 36.8043 26.5959C35.9824 26.591 35.1168 26.7659 34.2356 27.2471C32.9622 26.6287 31.7395 26.5528 30.6099 27.105C29.4646 27.6649 28.7119 28.7726 28.2374 29.471C28.227 29.4862 28.2169 29.5012 28.2068 29.5159C28.1815 29.5532 28.1568 29.5896 28.1326 29.6252C27.8916 29.9801 27.7052 30.2546 27.5152 30.4858C27.355 30.6808 27.2503 30.7704 27.1962 30.8087C27.0962 30.7725 26.8515 30.648 26.4461 30.2615L26.0115 29.8471L25.411 29.8471C24.5403 29.8471 23.652 30.1381 22.9236 30.421C22.5042 30.5839 22.0037 30.8019 21.5424 31.0027C21.2457 31.1319 20.9653 31.254 20.7332 31.3498C20.0283 31.6408 19.497 31.8136 19.1016 31.8585C18.9175 31.8793 18.8212 31.8646 18.784 31.8549C18.766 31.8503 18.7657 31.849 18.7655 31.848C18.7654 31.8478 18.7654 31.8475 18.7651 31.8473C17.8041 30.8863 16.537 30.5026 15.8125 30.2832C15.6853 30.2447 15.5748 30.2113 15.4857 30.1806C15.3065 30.1191 15.1882 30.0697 15.1052 30.0262C15.0655 30.0054 15.0407 29.9894 15.0266 29.9793C15.0189 29.949 15.0098 29.8896 15.0098 29.7863V29.0144L14.3816 28.5657L13.0159 27.5902ZM39.8097 27.0713C39.8097 27.0713 39.8088 27.0715 39.8067 27.0719C39.8086 27.0714 39.8096 27.0712 39.8097 27.0713ZM15.0366 30.0058C15.0361 30.0066 15.0333 30.0021 15.0296 29.9903C15.0353 29.9992 15.0371 30.0051 15.0366 30.0058Z" fill="url(#paint10_linear_610_6892)" stroke="white" stroke-width="3"/>
<path d="M38.7147 35.1542H39.2147V34.6542V32.7324V32.2324H38.7147H38.1646V22.9763V22.4763H37.6646H33.4954H32.9954V22.9763V24.5766H32.1722H29.2632H29.0044L28.855 24.788C28.3551 25.495 27.8774 26.2472 27.4219 27.0444C26.9672 27.8401 26.5445 28.6535 26.1538 29.4847L26.1538 29.4847L26.1523 29.4878C25.7682 30.3202 25.423 31.1635 25.117 32.0176C24.81 32.8742 24.5595 33.7149 24.3658 34.5399L24.2216 35.1542H24.8525H32.9954V38.0987V38.5987H33.4954H37.6646H38.1646V38.0987V35.1542H38.7147ZM32.9954 24.678V32.2324H29.6575C29.7948 31.7067 29.9644 31.1506 30.1665 30.5639L30.1667 30.5633C30.4062 29.8654 30.7228 29.063 31.1178 28.155C31.5141 27.2601 32.0079 26.32 32.6007 25.3343L32.9954 24.678Z" fill="#777777" stroke="white"/>
<path d="M26.0003 48.9043L25.5511 48.8426L25.4458 49.2836L24.0114 55.294L20.9229 54.5569L22.3573 48.5465L22.4624 48.1062L22.0347 47.958C18.3904 46.6953 15.1797 44.4236 12.776 41.4074C10.3723 38.3912 8.87458 34.7544 8.45705 30.9202C8.03952 27.0861 8.71938 23.2122 10.4175 19.7493C12.0422 16.4361 14.5352 13.6295 17.6266 11.626L19.2904 14.3329C16.5898 16.1029 14.4389 18.5995 13.0882 21.5398C11.6678 24.6316 11.1962 28.0753 11.733 31.4352C12.2698 34.7951 13.7908 37.9204 16.1038 40.4158C18.4168 42.9113 21.4179 44.6648 24.7274 45.4547C28.037 46.2445 31.5065 46.0352 34.6971 44.8533C37.8878 43.6713 40.6562 41.5698 42.6525 38.8144C44.6488 36.059 45.7831 32.7736 45.9121 29.3735C46.0348 26.1401 45.2431 22.9413 43.6329 20.1425L46.339 18.4791C48.7831 22.6944 49.6409 27.6511 48.7465 32.4521C47.8215 37.4173 45.0881 41.863 41.0749 44.9295L40.716 45.2037L40.9525 45.5886L42.932 48.8091L40.2264 50.4722L38.2469 47.2516L38.01 46.8662L37.6028 47.0635C34.0017 48.8087 29.9647 49.4492 26.0003 48.9043Z" stroke="black"/>
<defs>
<linearGradient id="paint0_linear_610_6892" x1="113.166" y1="21.1113" x2="113.166" y2="49.2575" gradientUnits="userSpaceOnUse">
<stop stop-color="#35A7FF" stop-opacity="0.87"/>
<stop offset="0.677665" stop-color="#35D5E5" stop-opacity="0.75941"/>
<stop offset="1" stop-color="#35FFCF" stop-opacity="0.66"/>
</linearGradient>
<linearGradient id="paint1_linear_610_6892" x1="113.166" y1="21.1113" x2="113.166" y2="49.2575" gradientUnits="userSpaceOnUse">
<stop stop-color="#35A7FF" stop-opacity="0.87"/>
<stop offset="0.677665" stop-color="#35D5E5" stop-opacity="0.75941"/>
<stop offset="1" stop-color="#35FFCF" stop-opacity="0.66"/>
</linearGradient>
<linearGradient id="paint2_linear_610_6892" x1="113.166" y1="21.1113" x2="113.166" y2="49.2575" gradientUnits="userSpaceOnUse">
<stop stop-color="#35A7FF" stop-opacity="0.87"/>
<stop offset="0.677665" stop-color="#35D5E5" stop-opacity="0.75941"/>
<stop offset="1" stop-color="#35FFCF" stop-opacity="0.66"/>
</linearGradient>
<linearGradient id="paint3_linear_610_6892" x1="113.166" y1="21.1113" x2="113.166" y2="49.2575" gradientUnits="userSpaceOnUse">
<stop stop-color="#35A7FF" stop-opacity="0.87"/>
<stop offset="0.677665" stop-color="#35D5E5" stop-opacity="0.75941"/>
<stop offset="1" stop-color="#35FFCF" stop-opacity="0.66"/>
</linearGradient>
<linearGradient id="paint4_linear_610_6892" x1="113.166" y1="21.1113" x2="113.166" y2="49.2575" gradientUnits="userSpaceOnUse">
<stop stop-color="#35A7FF" stop-opacity="0.87"/>
<stop offset="0.677665" stop-color="#35D5E5" stop-opacity="0.75941"/>
<stop offset="1" stop-color="#35FFCF" stop-opacity="0.66"/>
</linearGradient>
<linearGradient id="paint5_linear_610_6892" x1="113.166" y1="21.1113" x2="113.166" y2="49.2575" gradientUnits="userSpaceOnUse">
<stop stop-color="#35A7FF" stop-opacity="0.87"/>
<stop offset="0.677665" stop-color="#35D5E5" stop-opacity="0.75941"/>
<stop offset="1" stop-color="#35FFCF" stop-opacity="0.66"/>
</linearGradient>
<linearGradient id="paint6_linear_610_6892" x1="113.166" y1="21.1113" x2="113.166" y2="49.2575" gradientUnits="userSpaceOnUse">
<stop stop-color="#35A7FF" stop-opacity="0.87"/>
<stop offset="0.677665" stop-color="#35D5E5" stop-opacity="0.75941"/>
<stop offset="1" stop-color="#35FFCF" stop-opacity="0.66"/>
</linearGradient>
<linearGradient id="paint7_linear_610_6892" x1="113.166" y1="21.1113" x2="113.166" y2="49.2575" gradientUnits="userSpaceOnUse">
<stop stop-color="#35A7FF" stop-opacity="0.87"/>
<stop offset="0.677665" stop-color="#35D5E5" stop-opacity="0.75941"/>
<stop offset="1" stop-color="#35FFCF" stop-opacity="0.66"/>
</linearGradient>
<linearGradient id="paint8_linear_610_6892" x1="113.166" y1="21.1113" x2="113.166" y2="49.2575" gradientUnits="userSpaceOnUse">
<stop stop-color="#35A7FF" stop-opacity="0.87"/>
<stop offset="0.677665" stop-color="#35D5E5" stop-opacity="0.75941"/>
<stop offset="1" stop-color="#35FFCF" stop-opacity="0.66"/>
</linearGradient>
<linearGradient id="paint9_linear_610_6892" x1="28.3552" y1="23.0563" x2="33.1187" y2="41.7748" gradientUnits="userSpaceOnUse">
<stop stop-color="#35A7FF" stop-opacity="0.87"/>
<stop offset="0.677665" stop-color="#35D5E5" stop-opacity="0.75941"/>
<stop offset="1" stop-color="#35FFCF" stop-opacity="0.66"/>
</linearGradient>
<linearGradient id="paint10_linear_610_6892" x1="28.7278" y1="26.0793" x2="28.7278" y2="45.3945" gradientUnits="userSpaceOnUse">
<stop stop-color="#35A7FF" stop-opacity="0.87"/>
<stop offset="0.677665" stop-color="#35D5E5" stop-opacity="0.75941"/>
<stop offset="1" stop-color="#35FFCF" stop-opacity="0.66"/>
</linearGradient>
</defs>
</svg>
