<svg width="25" height="24" viewBox="0 0 25 24" fill="none" xmlns="http://www.w3.org/2000/svg">
<path d="M12.5002 15C7.49016 15 3.41016 18.36 3.41016 22.5C3.41016 22.78 3.63016 23 3.91016 23H21.0902C21.3702 23 21.5902 22.78 21.5902 22.5C21.5902 18.36 17.5102 15 12.5002 15Z" fill="white"/>
<path d="M16.21 3.66C15.31 2.64 13.97 2 12.5 2C11.1 2 9.82 2.57 8.91 3.51C8.04 4.41 7.5 5.65 7.5 7C7.5 7.94 7.76 8.82 8.23 9.57C8.48 10 8.8 10.39 9.18 10.71C10.05 11.51 11.21 12 12.5 12C14.33 12 15.91 11.02 16.78 9.57C17.04 9.14 17.24 8.66 17.35 8.16C17.45 7.79 17.5 7.4 17.5 7C17.5 5.72 17.01 4.55 16.21 3.66ZM14.37 7.92H13.44V8.89C13.44 9.41 13.02 9.83 12.5 9.83C11.98 9.83 11.56 9.41 11.56 8.89V7.92H10.63C10.11 7.92 9.69 7.5 9.69 6.98C9.69 6.46 10.11 6.04 10.63 6.04H11.56V5.15C11.56 4.63 11.98 4.21 12.5 4.21C13.02 4.21 13.44 4.63 13.44 5.15V6.04H14.37C14.89 6.04 15.31 6.46 15.31 6.98C15.31 7.5 14.89 7.92 14.37 7.92Z" fill="white"/>
</svg>
